# xmcd CD database file
#
# Track frame offsets:
#	225
#	13601
#	26588
#	42236
#	59569
#	78156
#	95546
#	120361
#	137067
#	152137
#	174688
#	189346
#
# Disc length: 2783 seconds
#
# Revision: 0
# Processed by: cddbd v1.5.2PL0 Copyright (c) Steve Scherf et al.
# Submitted via: CDex 1.51
#
DISCID=950adc0c
DTITLE=Steffen Gores - A Dozen One Afternoon
DYEAR=1995
DGENRE=Jazz
TTITLE0=Pong, Flax and Cabbage Trees
TTITLE1=Red Shoe Waltz
TTITLE2=Secret Angel
TTITLE3=Just Green
TTITLE4=After the Rain
TTITLE5=Mood 49
TTITLE6=Late Night Special
TTITLE7=Mountain Clown
TTITLE8=Binabiburg Bossa
TTITLE9=Rose for Eleanor
TTITLE10=Song for You
TTITLE11=Closing Time
EXTD=YEAR: 1995
EXTT0=
EXTT1=
EXTT2=
EXTT3=
EXTT4=
EXTT5=
EXTT6=
EXTT7=
EXTT8=
EXTT9=
EXTT10=
EXTT11=
PLAYORDER=
